<?xml version="1.0" ?><svg height="512px" version="1.1" viewBox="0 0 512 512" width="512px" xmlns="http://www.w3.org/2000/svg" xmlns:xlink="http://www.w3.org/1999/xlink"><title/><desc/><defs/><g fill="none" fill-rule="evenodd" id="SVG" stroke="none" stroke-width="1"><g id="Lemon"><g><path d="M406.490832,407.204669 C466.299688,347.841721 492.197442,268.946348 482.468073,197.84832 L482.515303,197.863945 C482.515303,197.863945 474.061142,133.391316 485.223153,103.842662 C500.919239,77.7473419 492.591025,54.3709351 475.462297,37.369912 C458.33357,20.3845148 434.78157,12.1183923 408.505976,27.6974549 C378.735367,38.7762466 313.778447,30.3851166 313.778447,30.3851166 L313.778447,30.4163685 C242.146361,20.7751633 162.674105,46.4642092 102.865249,105.842783 C43.0406503,165.20573 17.1586396,244.085477 26.8722652,315.183506 L26.8407786,315.183506 C26.8407786,315.183506 35.294939,379.656136 24.1329283,409.204789 C8.43684278,435.284483 16.7650567,458.66089 33.893784,475.661913 C51.0067679,492.662936 74.5587679,500.929059 100.850105,485.349996 C130.620714,474.271205 195.577634,482.662335 195.577634,482.662335 L195.561891,482.615457 C267.193976,492.272288 346.681976,466.567616 406.490832,407.204669" fill="#FAD841" id="Fill-1"/><path d="M482.51058,197.859258 C482.51058,197.859258 479.078537,171.545174 479.503606,144.824816 C476.29197,141.433987 473.757296,133.964788 472.119991,121.495287 L472.072761,121.495287 C483.549639,205.422213 452.991863,298.537191 382.383093,368.63516 C315.851842,434.670384 211.158794,468.313034 128.553617,462.453306 C123.799136,467.062958 115.911735,474.657165 106.119393,483.704585 C137.63751,475.188447 195.572911,482.657647 195.572911,482.657647 L195.572911,482.610769 C267.204997,492.2676 346.677253,466.578554 406.486109,407.199981 C466.310708,347.837033 492.192719,268.957286 482.46335,197.859258 L482.51058,197.859258 Z" fill="#FAAC28" id="Fill-3"/><path d="M42.5966888,314.274076 C43.9506139,325.14973 50.5628064,383.731381 38.865523,414.701995 C38.5349134,415.561421 38.1255872,416.405222 37.6375444,417.217771 C27.6247957,433.859398 30.1122396,449.813483 45.0211594,464.611248 C59.9300791,479.409014 75.9725176,481.862286 92.7863786,471.939814 C93.5892877,471.45541 94.4394267,471.049136 95.3210524,470.720991 C127.846742,458.642139 190.552368,466.267598 197.605373,467.158277 C267.269544,476.502589 341.152924,449.969742 395.357159,396.154003 C449.577138,342.338265 476.309288,269.005727 466.879042,199.970322 C466.816068,199.548422 466.768839,199.157773 466.753095,198.735873 C465.383427,187.828967 458.786978,129.294194 470.484261,98.354832 C470.814871,97.4797794 471.224197,96.6359786 471.696496,95.8390556 C481.724988,79.1661772 479.237544,63.2277181 464.328625,48.4143266 C449.403961,33.6165611 433.34578,31.1476625 416.563405,41.1170125 C415.760496,41.6014166 414.910357,41.9920651 414.028732,42.3358358 C382.951427,53.9146576 324.22886,47.4455183 312.988133,46.0391837 C312.531576,46.0079318 312.106507,45.9766799 311.649951,45.9141761 C242.143213,36.4917341 168.212603,63.0714587 113.992625,116.887197 C59.772646,170.702936 33.0404963,244.035474 42.4707422,313.086505 C42.5337155,313.477153 42.5652021,313.883427 42.5966888,314.274076 M72.8238545,509.285812 C55.1126246,509.301438 37.8422075,501.691605 22.7601112,486.706328 C-2.1458139,461.98609 -6.83732193,431.390499 9.80336257,402.560639 C17.2814374,380.762452 13.4085818,333.743998 11.220261,317.196127 C11.173031,316.852356 11.1415444,316.524211 11.1258011,316.180441 C0.813929412,237.847602 30.883662,155.155125 91.7315765,94.7921176 C152.532261,34.42911 235.782913,4.52106012 314.672667,14.7873029 C315.050507,14.8029289 315.428347,14.8341808 315.806186,14.8966845 C332.509844,17.0218124 379.897224,20.8657937 401.811919,13.4747239 C430.874079,-3.05752096 461.683748,1.59900927 486.589673,26.3192469 C511.495598,51.0394846 516.187106,81.6350758 499.546421,110.480562 C492.068347,132.278749 495.941202,179.265951 498.129523,195.845074 C498.16101,196.173219 498.192496,196.532615 498.223983,196.876386 C508.535855,275.193599 478.466122,357.87045 417.618207,418.249083 C356.5184,478.908984 272.779705,508.770156 193.559341,498.12889 C193.480625,498.113264 193.417651,498.113264 193.338935,498.097638 C163.111769,494.488046 125.249095,493.628619 107.537865,499.566477 C96.0767316,506.066868 84.3637048,509.285812 72.8238545,509.285812" fill="#454849" id="Fill-5"/><path d="M239.614836,377.218489 C233.585147,384.281414 222.926922,385.156467 215.810943,379.171732 C208.694965,373.186996 207.813339,362.608235 213.843029,355.54531 C219.872719,348.482385 230.530943,347.607332 237.646922,353.592067 C244.762901,359.576802 245.644526,370.155564 239.614836,377.218489" fill="#FCB72C" id="Fill-8"/><path d="M283.304111,348.521449 C277.274421,355.584375 266.616197,356.459427 259.500218,350.474692 C252.38424,344.489957 251.502614,333.911195 257.532304,326.84827 C263.561994,319.785345 274.220218,318.910292 281.336197,324.895028 C288.452175,330.879763 289.333801,341.458524 283.304111,348.521449" fill="#FCB72C" id="Fill-10"/><path d="M270.567769,407.293736 C265.120582,414.809814 254.556817,416.497415 247.000026,411.09084 C239.427491,405.684265 237.71147,395.199259 243.158657,387.698807 C248.621587,380.18273 259.169609,378.479502 266.742143,383.901704 C274.314678,389.308279 276.014956,399.777659 270.567769,407.293736" fill="#FCB72C" id="Fill-12"/><path d="M316.457959,386.475296 C307.641703,394.085129 294.275628,393.147573 286.608633,384.397046 C278.941639,375.646519 279.886237,362.380096 288.702494,354.770263 C297.534494,347.16043 310.884826,348.097986 318.55182,356.848513 C326.218815,365.59904 325.274216,378.865463 316.457959,386.475296" fill="#FCB72C" id="Fill-14"/><path d="M365.616462,360.059644 C359.807179,366.856928 349.542537,367.700729 342.694195,361.950383 C335.830109,356.184411 334.97997,345.996298 340.789253,339.183388 C346.598537,332.386103 356.863179,331.542303 363.711521,337.292649 C370.575606,343.058621 371.425745,353.246734 365.616462,360.059644" fill="#FCB72C" id="Fill-16"/><path d="M397.244783,326.793579 C391.624419,333.387726 381.674644,334.200275 375.046708,328.621814 C368.403029,323.043354 367.584376,313.167759 373.20474,306.573613 C378.825104,299.995092 388.774879,299.182543 395.402815,304.761003 C402.046494,310.339464 402.865147,320.199433 397.244783,326.793579" fill="#FCB72C" id="Fill-18"/><path d="M177.644424,439.987891 C172.02406,446.582038 162.074284,447.394587 155.446349,441.816126 C148.80267,436.237666 147.984017,426.362071 153.604381,419.783551 C159.224744,413.189404 169.17452,412.376855 175.802456,417.955315 C182.446135,423.533776 183.264787,433.393745 177.644424,439.987891" fill="#FCB72C" id="Fill-20"/><path d="M221.861099,424.361951 C216.240736,430.956098 206.29096,431.768647 199.663025,426.190186 C193.019345,420.611725 192.200693,410.736131 197.821057,404.15761 C203.44142,397.563463 213.391196,396.750914 220.019132,402.329375 C226.662811,407.907836 227.481463,417.767804 221.861099,424.361951" fill="#FCB72C" id="Fill-22"/><path d="M332.621621,327.642068 C326.308552,335.048764 315.130798,335.970694 307.668466,329.689066 C300.221878,323.423064 299.293022,312.328646 305.606092,304.937577 C311.934905,297.530881 323.096916,296.60895 330.559247,302.874952 C338.021579,309.156581 338.934691,320.235372 332.621621,327.642068" fill="#FCB72C" id="Fill-24"/><path d="M79.810738,225.814065 C78.1419465,225.814065 76.4574118,225.470294 74.8358503,224.720249 C68.932107,221.98571 66.3659465,215.032166 69.1052834,209.156813 C83.006631,179.514404 102.134759,152.497153 126.001626,128.808227 C145.176984,109.760206 166.682353,93.6498614 189.93523,80.9303459 C195.63431,77.8207838 202.813262,79.852156 205.977668,85.5243724 C209.126332,91.2122147 207.048214,98.3376435 201.33339,101.462832 C180.032684,113.119783 160.30631,127.886297 142.68954,145.38735 C120.790588,167.107407 103.236791,191.890148 90.5319358,219.032407 C88.5167914,223.313915 84.2660963,225.814065 79.810738,225.814065" fill="#FEFEFE" id="Fill-26"/><path d="M242.119598,64.1637119 C248.621587,69.632791 249.44024,79.3052481 243.914336,85.7587615 C238.404175,92.2279008 228.659063,93.0248238 222.157074,87.5557446 C215.655084,82.0866655 214.836432,72.4142084 220.362336,65.9450691 C225.872496,59.4915557 235.617609,58.6946328 242.119598,64.1637119" fill="#FEFEFE" id="Fill-28"/></g></g></g></svg>